<?xml version="1.0" encoding="utf-8"?>
<!-- Uploaded to: SVG Repo, www.svgrepo.com, Generator: SVG Repo Mixer Tools -->
<svg width="800px" height="800px" viewBox="0 0 48 48" fill="none" xmlns="http://www.w3.org/2000/svg">
<g id="music">
<g id="music_2">
<path id="Combined Shape" fill-rule="evenodd" clip-rule="evenodd" d="M20.8361 9.66991L42 6.14546V31.9638C42 35.2775 39.3137 37.9638 36 37.9638C32.6863 37.9638 30 35.2775 30 31.9638C30 28.6501 32.6863 25.9638 36 25.9638C36.8883 25.9638 37.7476 26.1565 38.5351 26.524C39.0356 26.7575 39.6306 26.5411 39.8642 26.0407C40.0977 25.5402 39.8814 24.9452 39.3809 24.7116C38.33 24.2212 37.1822 23.9638 36 23.9638C31.5817 23.9638 28 27.5455 28 31.9638C28 36.3821 31.5817 39.9638 36 39.9638C40.4183 39.9638 44 36.3821 44 31.9638V5.19979C44 4.45422 43.3248 3.88504 42.5877 4.02019L20.5057 7.69738C19.0598 7.94087 18 9.19231 18 10.6578V13.4598L16.7718 13.6655C16.2271 13.7567 15.8595 14.2723 15.9507 14.817C16.042 15.3617 16.5575 15.7293 17.1022 15.6381L18 15.4877V35.9638C18 39.2775 15.3137 41.9638 12 41.9638C8.68629 41.9638 6 39.2775 6 35.9638C6 32.6501 8.68629 29.9638 12 29.9638C12.9333 29.9638 13.8339 30.176 14.6494 30.5785C15.1447 30.823 15.7443 30.6196 15.9887 30.1244C16.2332 29.6291 16.0298 29.0295 15.5346 28.7851C14.4451 28.2473 13.2418 27.9638 12 27.9638C7.58172 27.9638 4 31.5455 4 35.9638C4 40.3821 7.58172 43.9638 12 43.9638C16.4183 43.9638 20 40.3821 20 35.9638V15.1528L39.1242 11.9501C39.6689 11.8588 40.0365 11.3433 39.9453 10.7986C39.854 10.2539 39.3385 9.88631 38.7938 9.97753L20 13.1249V10.6578C20 10.1693 20.3542 9.75105 20.8361 9.66991ZM20 13.1249L18 13.4598V15.4877L20 15.1528V13.1249ZM20 35.9638C20 35.4115 19.5523 34.9638 19 34.9638C18.4477 34.9638 18 35.4115 18 35.9638C18 36.5161 18.4477 36.9638 19 36.9638C19.5523 36.9638 20 36.5161 20 35.9638ZM44 31.9638C44 31.4115 43.5523 30.9638 43 30.9638C42.4477 30.9638 42 31.4115 42 31.9638C42 32.5161 42.4477 32.9638 43 32.9638C43.5523 32.9638 44 32.5161 44 31.9638ZM42 6.14546L42.9066 5.99448C42.4356 6.06489 42 5.68893 42 5.19979V6.14546Z" fill="#000000"/>
</g>
</g>
</svg>